<?xml version="1.0" encoding="UTF-8"?>
<svg width="24" height="24" viewBox="0 0 24 24" fill="none" xmlns="http://www.w3.org/2000/svg">
  <rect width="24" height="24" rx="12" fill="#ffffff" />
  <path fill-rule="evenodd" clip-rule="evenodd" d="M2 12C2 6.47715 6.47715 2 12 2C17.5228 2 22 6.47715 22 12C22 17.5228 17.5228 22 12 22C6.47715 22 2 17.5228 2 12Z" fill="white"/>
  <path fill-rule="evenodd" clip-rule="evenodd" d="M2 13.8462H22V12.0001H2V13.8462ZM2 17.5385H22V15.6923H2V17.5385ZM2 21.2308H22V19.3846H2V21.2308ZM2 10.1539H22V8.30774H2V10.1539ZM2 6.46158H22V4.61543H2V6.46158Z" fill="#F93939"/>
  <path fill-rule="evenodd" clip-rule="evenodd" d="M2 4.61536C2 3.17158 3.17158 2 4.61536 2H11.9999V10.1538H2V4.61536Z" fill="#1A47B8"/>
  <path fill-rule="evenodd" clip-rule="evenodd" d="M3.69238 3.69238L4.00007 4.61546L4.92315 4.30777L4.61546 5.23085L5.53853 5.53854L4.61546 5.84623L4.92315 6.76931L4.00007 6.46162L3.69238 7.38469L3.38469 6.46162L2.46161 6.76931L2.7693 5.84623L1.84622 5.53854L2.7693 5.23085L2.46161 4.30777L3.38469 4.61546L3.69238 3.69238Z" fill="white"/>
  <path fill-rule="evenodd" clip-rule="evenodd" d="M7.38452 6.46154L7.69221 7.38461L8.61529 7.07692L8.3076 8.00L9.23067 8.30769L8.3076 8.61538L8.61529 9.53846L7.69221 9.23077L7.38452 10.1538L7.07683 9.23077L6.15375 9.53846L6.46144 8.61538L5.53836 8.30769L6.46144 8.00L6.15375 7.07692L7.07683 7.38461L7.38452 6.46154Z" fill="white"/>
  <path fill-rule="evenodd" clip-rule="evenodd" d="M3.69238 6.46154L4.00007 7.38461L4.92315 7.07692L4.61546 8.00L5.53853 8.30769L4.61546 8.61538L4.92315 9.53846L4.00007 9.23077L3.69238 10.1538L3.38469 9.23077L2.46161 9.53846L2.7693 8.61538L1.84622 8.30769L2.7693 8.00L2.46161 7.07692L3.38469 7.38461L3.69238 6.46154Z" fill="white"/>
  <path fill-rule="evenodd" clip-rule="evenodd" d="M7.38452 3.69238L7.69221 4.61546L8.61529 4.30777L8.3076 5.23085L9.23067 5.53854L8.3076 5.84623L8.61529 6.76931L7.69221 6.46162L7.38452 7.38469L7.07683 6.46162L6.15375 6.76931L6.46144 5.84623L5.53836 5.53854L6.46144 5.23085L6.15375 4.30777L7.07683 4.61546L7.38452 3.69238Z" fill="white"/>
</svg>