<?xml version="1.0" encoding="UTF-8"?>
<svg width="24" height="24" viewBox="0 0 24 24" fill="none" xmlns="http://www.w3.org/2000/svg">
  <rect width="24" height="24" rx="12" fill="#ffffff" />
  <path fill-rule="evenodd" clip-rule="evenodd" d="M2 12C2 6.47715 6.47715 2 12 2C17.5228 2 22 6.47715 22 12C22 17.5228 17.5228 22 12 22C6.47715 22 2 17.5228 2 12Z" fill="#1A47B8"/>
  <path fill-rule="evenodd" clip-rule="evenodd" d="M2.49609 7.73913H21.5039V16.2609H2.49609V7.73913Z" fill="#1A47B8"/>
  <path d="M13.4782 2.03992V10.0869H21.9999C21.956 9.07971 21.7622 8.10371 21.4321 7.18769L13.4782 2.03992Z" fill="#F93939"/>
  <path d="M2.00006 10.087H10.5218V2.03992L2.56787 7.18776C2.23788 8.10372 2.04401 9.07972 2.00006 10.087Z" fill="#F93939"/>
  <path d="M10.5218 21.9602V13.913H2.00003C2.04399 14.9202 2.23786 15.8962 2.56785 16.8123L10.5218 21.9602Z" fill="#F93939"/>
  <path d="M21.9999 13.913H13.4782V21.9602L21.4321 16.8123C21.7621 15.8962 21.956 14.9202 21.9999 13.913Z" fill="#F93939"/>
  <path d="M21.4305 7.18866H2.56885C2.20202 8.19735 2 9.30365 2 10.4498V10.9694H22V10.4498C22 9.30365 21.798 8.19735 21.4312 7.18866H21.4305Z" fill="#F93939"/>
  <path d="M12 22C13.1462 22 14.2525 21.798 15.2612 21.4312V21.4319H8.73877C9.74746 21.798 10.8538 22 12 22Z" fill="#F93939"/>
  <path d="M12 2C10.8538 2 9.74746 2.20201 8.73877 2.56884V2.56812H15.2612C14.2525 2.20201 13.1462 2 12 2Z" fill="#F93939"/>
  <path d="M2.56885 16.8112H21.4305C21.7974 15.8025 21.9994 14.6962 21.9994 13.55V13.0303H1.99939V13.55C1.99939 14.6962 2.20139 15.8025 2.56823 16.8112H2.56885Z" fill="#F93939"/>
</svg>